STARTFONT 2.1
COMMENT Created by fdbbdf
FONT times8bi
SIZE 8 78 78
FONTBOUNDINGBOX 13 11 -2 -4
STARTPROPERTIES 4
Ownership "  Copyright (c) 1984 Adobe Systems, Inc.  /adobe/fonttools/bitmaps/stdfontvec.ps TI10.bits  TOTAL BITMAP BYTES 928  GUIDELINES -3 0 5 7 DONE  WIDTHERR -48 -177  "
FONT_ASCENT 7
FONT_DESCENT 4
DEFAULT_CHAR 32
ENDPROPERTIES
CHARS 95
STARTCHAR sp
ENCODING -1 32
SWIDTH 0 0
DWIDTH 3 0
BBX 0 0 0 0
BITMAP
ENDCHAR
STARTCHAR !
ENCODING -1 33
SWIDTH 0 0
DWIDTH 6 0
BBX 4 7 1 -1
BITMAP
3000
3000
6000
4000
0000
c000
c000
ENDCHAR
STARTCHAR "
ENCODING -1 34
SWIDTH 0 0
DWIDTH 6 0
BBX 3 3 2 3
BITMAP
a000
a000
a000
ENDCHAR
STARTCHAR #
ENCODING -1 35
SWIDTH 0 0
DWIDTH 8 0
BBX 7 7 1 -1
BITMAP
1400
1400
7e00
2800
fc00
5000
5000
ENDCHAR
STARTCHAR $
ENCODING -1 36
SWIDTH 0 0
DWIDTH 6 0
BBX 4 7 1 -1
BITMAP
2000
7000
c000
6000
3000
e000
4000
ENDCHAR
STARTCHAR %
ENCODING -1 37
SWIDTH 0 0
DWIDTH 11 0
BBX 10 7 1 -1
BITMAP
6600
de00
d400
6d80
1b40
3340
3180
ENDCHAR
STARTCHAR &
ENCODING -1 38
SWIDTH 0 0
DWIDTH 8 0
BBX 8 7 0 -1
BITMAP
1c00
3400
3800
7700
da00
cc00
7600
ENDCHAR
STARTCHAR '
ENCODING -1 39
SWIDTH 0 0
DWIDTH 4 0
BBX 2 3 2 3
BITMAP
c000
4000
8000
ENDCHAR
STARTCHAR (
ENCODING -1 40
SWIDTH 0 0
DWIDTH 6 0
BBX 5 9 1 -3
BITMAP
0800
3000
6000
c000
c000
c000
c000
6000
2000
ENDCHAR
STARTCHAR )
ENCODING -1 41
SWIDTH 0 0
DWIDTH 6 0
BBX 5 9 0 -3
BITMAP
2000
3000
1800
1800
1800
1800
3000
6000
8000
ENDCHAR
STARTCHAR *
ENCODING -1 42
SWIDTH 0 0
DWIDTH 7 0
BBX 5 5 1 2
BITMAP
2000
a800
7000
a800
2000
ENDCHAR
STARTCHAR +
ENCODING -1 43
SWIDTH 0 0
DWIDTH 6 0
BBX 5 5 0 0
BITMAP
2000
2000
f800
2000
2000
ENDCHAR
STARTCHAR ,
ENCODING -1 44
SWIDTH 0 0
DWIDTH 4 0
BBX 3 3 0 -2
BITMAP
6000
6000
c000
ENDCHAR
STARTCHAR -
ENCODING -1 45
SWIDTH 0 0
DWIDTH 4 0
BBX 3 1 0 2
BITMAP
e000
ENDCHAR
STARTCHAR .
ENCODING -1 46
SWIDTH 0 0
DWIDTH 4 0
BBX 2 2 1 -1
BITMAP
c000
c000
ENDCHAR
STARTCHAR /
ENCODING -1 47
SWIDTH 0 0
DWIDTH 5 0
BBX 5 7 0 -1
BITMAP
1800
1000
3000
2000
6000
4000
c000
ENDCHAR
STARTCHAR 0
ENCODING -1 48
SWIDTH 0 0
DWIDTH 6 0
BBX 5 7 0 -1
BITMAP
3000
6800
c800
d800
9800
b000
6000
ENDCHAR
STARTCHAR 1
ENCODING -1 49
SWIDTH 0 0
DWIDTH 5 0
BBX 5 7 0 -1
BITMAP
1800
7800
3000
3000
6000
6000
f000
ENDCHAR
STARTCHAR 2
ENCODING -1 50
SWIDTH 0 0
DWIDTH 6 0
BBX 5 7 0 -1
BITMAP
3800
5800
1800
3000
6000
c000
f000
ENDCHAR
STARTCHAR 3
ENCODING -1 51
SWIDTH 0 0
DWIDTH 6 0
BBX 5 7 0 -1
BITMAP
3800
4800
1800
3000
1800
9800
7000
ENDCHAR
STARTCHAR 4
ENCODING -1 52
SWIDTH 0 0
DWIDTH 6 0
BBX 5 7 0 -1
BITMAP
1800
3800
5800
b000
f800
3000
3000
ENDCHAR
STARTCHAR 5
ENCODING -1 53
SWIDTH 0 0
DWIDTH 5 0
BBX 5 7 0 -1
BITMAP
3800
3800
4000
7000
1000
b000
e000
ENDCHAR
STARTCHAR 6
ENCODING -1 54
SWIDTH 0 0
DWIDTH 5 0
BBX 5 7 0 -1
BITMAP
1800
7000
6000
f000
d000
d000
6000
ENDCHAR
STARTCHAR 7
ENCODING -1 55
SWIDTH 0 0
DWIDTH 5 0
BBX 5 7 0 -1
BITMAP
7800
7800
1800
3000
6000
c000
c000
ENDCHAR
STARTCHAR 8
ENCODING -1 56
SWIDTH 0 0
DWIDTH 6 0
BBX 5 7 0 -1
BITMAP
3800
6800
7800
7000
d800
d800
7000
ENDCHAR
STARTCHAR 9
ENCODING -1 57
SWIDTH 0 0
DWIDTH 6 0
BBX 5 7 0 -1
BITMAP
3000
5800
5800
3800
1800
3000
6000
ENDCHAR
STARTCHAR :
ENCODING -1 58
SWIDTH 0 0
DWIDTH 3 0
BBX 3 5 0 -1
BITMAP
6000
6000
0000
c000
c000
ENDCHAR
STARTCHAR ;
ENCODING -1 59
SWIDTH 0 0
DWIDTH 5 0
BBX 4 6 0 -2
BITMAP
3000
3000
0000
6000
6000
c000
ENDCHAR
STARTCHAR <
ENCODING -1 60
SWIDTH 0 0
DWIDTH 6 0
BBX 4 5 1 0
BITMAP
3000
6000
c000
6000
3000
ENDCHAR
STARTCHAR =
ENCODING -1 61
SWIDTH 0 0
DWIDTH 6 0
BBX 5 3 0 1
BITMAP
f800
0000
f800
ENDCHAR
STARTCHAR >
ENCODING -1 62
SWIDTH 0 0
DWIDTH 6 0
BBX 4 5 1 0
BITMAP
c000
6000
3000
6000
c000
ENDCHAR
STARTCHAR ?
ENCODING -1 63
SWIDTH 0 0
DWIDTH 5 0
BBX 4 7 1 -1
BITMAP
6000
b000
6000
4000
0000
c000
c000
ENDCHAR
STARTCHAR @
ENCODING -1 64
SWIDTH 0 0
DWIDTH 11 0
BBX 9 9 1 -3
BITMAP
1e00
7100
4f80
da80
b680
b480
df00
6000
3e00
ENDCHAR
STARTCHAR A
ENCODING -1 65
SWIDTH 0 0
DWIDTH 7 0
BBX 7 7 -1 -1
BITMAP
0c00
1c00
1400
2c00
7c00
4c00
de00
ENDCHAR
STARTCHAR B
ENCODING -1 66
SWIDTH 0 0
DWIDTH 8 0
BBX 8 7 -1 -1
BITMAP
3e00
1b00
3300
3c00
6600
6600
fc00
ENDCHAR
STARTCHAR C
ENCODING -1 67
SWIDTH 0 0
DWIDTH 7 0
BBX 7 7 0 -1
BITMAP
1c00
7600
6000
c000
c000
e400
7800
ENDCHAR
STARTCHAR D
ENCODING -1 68
SWIDTH 0 0
DWIDTH 8 0
BBX 8 7 -1 -1
BITMAP
3e00
1b00
3300
3300
6600
6c00
f800
ENDCHAR
STARTCHAR E
ENCODING -1 69
SWIDTH 0 0
DWIDTH 7 0
BBX 8 7 -1 -1
BITMAP
3f00
1b00
3000
3c00
6000
6600
fc00
ENDCHAR
STARTCHAR F
ENCODING -1 70
SWIDTH 0 0
DWIDTH 7 0
BBX 8 7 -1 -1
BITMAP
3f00
1b00
3000
3c00
6000
6000
f000
ENDCHAR
STARTCHAR G
ENCODING -1 71
SWIDTH 0 0
DWIDTH 8 0
BBX 7 7 0 -1
BITMAP
1e00
7600
6000
ce00
cc00
cc00
7800
ENDCHAR
STARTCHAR H
ENCODING -1 72
SWIDTH 0 0
DWIDTH 8 0
BBX 8 7 0 -1
BITMAP
7300
3300
6200
7e00
6600
cc00
ce00
ENDCHAR
STARTCHAR I
ENCODING -1 73
SWIDTH 0 0
DWIDTH 4 0
BBX 6 7 -1 -1
BITMAP
3c00
1800
3000
3000
6000
6000
f000
ENDCHAR
STARTCHAR J
ENCODING -1 74
SWIDTH 0 0
DWIDTH 5 0
BBX 7 8 -1 -2
BITMAP
1e00
0c00
1800
1800
3000
b000
e000
0000
ENDCHAR
STARTCHAR K
ENCODING -1 75
SWIDTH 0 0
DWIDTH 8 0
BBX 9 7 -1 -1
BITMAP
3b80
1b00
3600
3c00
6c00
6600
f700
ENDCHAR
STARTCHAR L
ENCODING -1 76
SWIDTH 0 0
DWIDTH 6 0
BBX 6 7 -1 -1
BITMAP
3c00
1800
3000
3000
6000
6400
fc00
ENDCHAR
STARTCHAR M
ENCODING -1 77
SWIDTH 0 0
DWIDTH 10 0
BBX 11 7 -1 -1
BITMAP
3860
18c0
39c0
2a80
6d80
4d80
ebc0
ENDCHAR
STARTCHAR N
ENCODING -1 78
SWIDTH 0 0
DWIDTH 9 0
BBX 10 7 -1 -1
BITMAP
3bc0
1880
3d80
2d00
6f00
4600
e600
ENDCHAR
STARTCHAR O
ENCODING -1 79
SWIDTH 0 0
DWIDTH 8 0
BBX 7 7 0 -1
BITMAP
1c00
7600
6600
c600
cc00
dc00
7000
ENDCHAR
STARTCHAR P
ENCODING -1 80
SWIDTH 0 0
DWIDTH 6 0
BBX 7 7 -1 -1
BITMAP
3e00
1a00
3600
3c00
6000
6000
f000
ENDCHAR
STARTCHAR Q
ENCODING -1 81
SWIDTH 0 0
DWIDTH 8 0
BBX 7 9 0 -3
BITMAP
1c00
7600
6600
c600
cc00
dc00
7000
6400
f800
ENDCHAR
STARTCHAR R
ENCODING -1 82
SWIDTH 0 0
DWIDTH 8 0
BBX 8 7 -1 -1
BITMAP
3e00
1b00
3300
3e00
6c00
6c00
e600
ENDCHAR
STARTCHAR S
ENCODING -1 83
SWIDTH 0 0
DWIDTH 6 0
BBX 6 7 0 -1
BITMAP
3c00
6c00
6000
3000
1800
d800
f000
ENDCHAR
STARTCHAR T
ENCODING -1 84
SWIDTH 0 0
DWIDTH 7 0
BBX 7 7 0 -1
BITMAP
7e00
da00
1800
3000
3000
6000
f000
ENDCHAR
STARTCHAR U
ENCODING -1 85
SWIDTH 0 0
DWIDTH 8 0
BBX 9 7 0 -1
BITMAP
7b80
3300
6600
6600
cc00
cc00
7800
ENDCHAR
STARTCHAR V
ENCODING -1 86
SWIDTH 0 0
DWIDTH 7 0
BBX 8 7 0 -1
BITMAP
f700
6200
6400
6c00
6800
7000
6000
ENDCHAR
STARTCHAR W
ENCODING -1 87
SWIDTH 0 0
DWIDTH 9 0
BBX 10 7 0 -1
BITMAP
edc0
6c80
6d00
6d00
6e00
3600
2400
ENDCHAR
STARTCHAR X
ENCODING -1 88
SWIDTH 0 0
DWIDTH 7 0
BBX 9 7 -1 -1
BITMAP
3b80
1b00
1c00
0800
1c00
6c00
ee00
ENDCHAR
STARTCHAR Y
ENCODING -1 89
SWIDTH 0 0
DWIDTH 6 0
BBX 8 7 -1 -1
BITMAP
7700
3600
3400
3800
3000
6000
f000
ENDCHAR
STARTCHAR Z
ENCODING -1 90
SWIDTH 0 0
DWIDTH 6 0
BBX 8 7 -1 -1
BITMAP
3f00
3600
0c00
1800
3000
6c00
fc00
ENDCHAR
STARTCHAR [
ENCODING -1 91
SWIDTH 0 0
DWIDTH 5 0
BBX 5 9 0 -3
BITMAP
3800
3000
3000
6000
6000
6000
c000
c000
e000
ENDCHAR
STARTCHAR \
ENCODING -1 92
SWIDTH 0 0
DWIDTH 5 0
BBX 5 7 0 -1
BITMAP
c000
4000
6000
2000
3000
1000
1800
ENDCHAR
STARTCHAR ]
ENCODING -1 93
SWIDTH 0 0
DWIDTH 5 0
BBX 5 9 0 -3
BITMAP
3800
1800
1800
3000
3000
3000
6000
6000
e000
ENDCHAR
STARTCHAR ^
ENCODING -1 94
SWIDTH 0 0
DWIDTH 7 0
BBX 5 4 1 2
BITMAP
2000
7000
d800
8800
ENDCHAR
STARTCHAR _
ENCODING -1 95
SWIDTH 0 0
DWIDTH 5 0
BBX 5 1 0 -3
BITMAP
f800
ENDCHAR
STARTCHAR `
ENCODING -1 96
SWIDTH 0 0
DWIDTH 4 0
BBX 2 3 1 3
BITMAP
4000
8000
c000
ENDCHAR
STARTCHAR a
ENCODING -1 97
SWIDTH 0 0
DWIDTH 6 0
BBX 5 5 0 -1
BITMAP
3800
6800
d800
d000
7800
ENDCHAR
STARTCHAR b
ENCODING -1 98
SWIDTH 0 0
DWIDTH 7 0
BBX 6 7 0 -1
BITMAP
3000
2000
3800
6c00
4c00
d800
f000
ENDCHAR
STARTCHAR c
ENCODING -1 99
SWIDTH 0 0
DWIDTH 6 0
BBX 5 5 0 -1
BITMAP
3000
6800
c000
d000
6000
ENDCHAR
STARTCHAR d
ENCODING -1 100
SWIDTH 0 0
DWIDTH 7 0
BBX 6 7 0 -1
BITMAP
0c00
0400
3c00
6800
c800
d800
6800
ENDCHAR
STARTCHAR e
ENCODING -1 101
SWIDTH 0 0
DWIDTH 6 0
BBX 5 5 0 -1
BITMAP
3800
5800
f000
c000
7000
ENDCHAR
STARTCHAR f
ENCODING -1 102
SWIDTH 0 0
DWIDTH 6 0
BBX 7 10 -1 -4
BITMAP
0e00
1800
3c00
1000
1000
3000
3000
2000
a000
c000
ENDCHAR
STARTCHAR g
ENCODING -1 103
SWIDTH 0 0
DWIDTH 5 0
BBX 6 8 -1 -4
BITMAP
3c00
6800
6800
3000
6000
f800
9800
7000
ENDCHAR
STARTCHAR h
ENCODING -1 104
SWIDTH 0 0
DWIDTH 6 0
BBX 6 7 -1 -1
BITMAP
7000
3000
3800
6c00
6c00
d800
d800
ENDCHAR
STARTCHAR i
ENCODING -1 105
SWIDTH 0 0
DWIDTH 4 0
BBX 3 7 0 -1
BITMAP
6000
0000
e000
6000
4000
c000
c000
ENDCHAR
STARTCHAR j
ENCODING -1 106
SWIDTH 0 0
DWIDTH 4 0
BBX 5 10 -1 -4
BITMAP
1800
0000
3800
1800
1000
3000
3000
2000
e000
c000
ENDCHAR
STARTCHAR k
ENCODING -1 107
SWIDTH 0 0
DWIDTH 6 0
BBX 6 7 0 -1
BITMAP
7000
3000
6c00
5800
7000
d000
d800
ENDCHAR
STARTCHAR l
ENCODING -1 108
SWIDTH 0 0
DWIDTH 4 0
BBX 4 7 0 -1
BITMAP
3000
3000
6000
6000
c000
c000
6000
ENDCHAR
STARTCHAR m
ENCODING -1 109
SWIDTH 0 0
DWIDTH 8 0
BBX 7 5 0 -1
BITMAP
d600
7e00
6a00
d400
d600
ENDCHAR
STARTCHAR n
ENCODING -1 110
SWIDTH 0 0
DWIDTH 6 0
BBX 5 5 0 -1
BITMAP
d800
7800
6800
d000
d800
ENDCHAR
STARTCHAR o
ENCODING -1 111
SWIDTH 0 0
DWIDTH 6 0
BBX 5 5 0 -1
BITMAP
3000
5800
d800
d000
6000
ENDCHAR
STARTCHAR p
ENCODING -1 112
SWIDTH 0 0
DWIDTH 6 0
BBX 7 8 -2 -4
BITMAP
3c00
1a00
1200
3400
3800
2000
6000
f000
ENDCHAR
STARTCHAR q
ENCODING -1 113
SWIDTH 0 0
DWIDTH 6 0
BBX 5 8 0 -4
BITMAP
3800
6800
d800
d000
7000
2000
6000
f000
ENDCHAR
STARTCHAR r
ENCODING -1 114
SWIDTH 0 0
DWIDTH 5 0
BBX 5 5 0 -1
BITMAP
6800
7000
6000
c000
c000
ENDCHAR
STARTCHAR s
ENCODING -1 115
SWIDTH 0 0
DWIDTH 5 0
BBX 4 5 0 -1
BITMAP
7000
d000
6000
b000
e000
ENDCHAR
STARTCHAR t
ENCODING -1 116
SWIDTH 0 0
DWIDTH 6 0
BBX 5 6 0 -1
BITMAP
3000
f800
6000
c000
d000
6000
ENDCHAR
STARTCHAR u
ENCODING -1 117
SWIDTH 0 0
DWIDTH 6 0
BBX 5 5 0 -1
BITMAP
e800
6800
d800
d000
7800
ENDCHAR
STARTCHAR v
ENCODING -1 118
SWIDTH 0 0
DWIDTH 6 0
BBX 5 5 0 -1
BITMAP
d800
d000
d000
6000
4000
ENDCHAR
STARTCHAR w
ENCODING -1 119
SWIDTH 0 0
DWIDTH 8 0
BBX 7 5 0 -1
BITMAP
ea00
6a00
6e00
7c00
2800
ENDCHAR
STARTCHAR x
ENCODING -1 120
SWIDTH 0 0
DWIDTH 5 0
BBX 6 5 -1 -1
BITMAP
6c00
3800
3000
7000
d800
ENDCHAR
STARTCHAR y
ENCODING -1 121
SWIDTH 0 0
DWIDTH 6 0
BBX 5 8 0 -4
BITMAP
e800
6800
6800
3000
3000
2000
c000
8000
ENDCHAR
STARTCHAR z
ENCODING -1 122
SWIDTH 0 0
DWIDTH 5 0
BBX 5 5 0 -1
BITMAP
7800
1000
6000
c000
f000
ENDCHAR
STARTCHAR {
ENCODING -1 123
SWIDTH 0 0
DWIDTH 5 0
BBX 6 9 0 -3
BITMAP
1c00
3000
3000
6000
c000
6000
6000
6000
3000
ENDCHAR
STARTCHAR |
ENCODING -1 124
SWIDTH 0 0
DWIDTH 4 0
BBX 4 10 0 -4
BITMAP
1000
1000
3000
2000
2000
4000
4000
c000
8000
8000
ENDCHAR
STARTCHAR }
ENCODING -1 125
SWIDTH 0 0
DWIDTH 5 0
BBX 6 9 -1 -3
BITMAP
3000
1800
1800
1800
0c00
1800
3000
3000
e000
ENDCHAR
STARTCHAR ~
ENCODING -1 126
SWIDTH 0 0
DWIDTH 6 0
BBX 6 2 0 1
BITMAP
6c00
b800
ENDCHAR
ENDFONT
